<?xml version="1.0" encoding="utf-8"?>
<!-- Generator: Adobe Illustrator 24.1.1, SVG Export Plug-In . SVG Version: 6.00 Build 0)  -->
<svg version="1.1" id="Livello_1" xmlns="http://www.w3.org/2000/svg" xmlns:xlink="http://www.w3.org/1999/xlink" x="0px" y="0px"
	 viewBox="0 0 595.3 841.9" style="enable-background:new 0 0 595.3 841.9;" xml:space="preserve">
<style type="text/css">
	.st0{fill:#E2B330;}
</style>
<g id="Livello_1_copia">
</g>
<g id="Livello_1_copia_2">
</g>
<g id="Livello_1_1_">
	<g>
		<g id="XMLID_1_">
			<g>
				<path class="st0" d="M580.4,352l-40.3-52.2l-40.3-51.9L459.5,196l-40.3-51.9l-40.3-52.2l-40.3,52.2L298.3,196l-40.3-51.9
					l-40.8-52.2l-40.3,52.2L136.5,196l-40.3,51.9l-40.3,51.9L15.6,352l-40.3,51.9l40.3,51.9l40.3,51.9L96.2,560l40.3,51.9l40.3-51.9
					l40.3-52.2l40.3-51.9l-40.3-51.9L176.8,352l-40.3-52.2l40.3-51.9l40.3-51.9l40.3,51.9l40.3,51.9l40.3-51.9l40.3-51.9l40.3,51.9
					l40.3,51.9L418.5,352l-80.8,104l40.3,51.9l40.5,52.1l40.3,51.9l40.3-51.9l40.3-52.2l40.3-51.9l40.3-51.9L580.4,352z M176.1,456
					l-40.3,51.9L95.5,456l-40.3-51.9l40.3-51.9l40.3,51.9L176.1,456z M499.6,456l-40.3,51.9L419,456l40.3-51.9l40.3-51.9l40.3,51.9
					L499.6,456z"/>
			</g>
		</g>
	</g>
</g>
</svg>
