<?xml version="1.0" encoding="utf-8"?>
<!-- Generator: Adobe Illustrator 24.1.1, SVG Export Plug-In . SVG Version: 6.00 Build 0)  -->
<svg version="1.1" id="Livello_1" xmlns="http://www.w3.org/2000/svg" xmlns:xlink="http://www.w3.org/1999/xlink" x="0px" y="0px"
	 viewBox="0 0 595.3 841.9" style="enable-background:new 0 0 595.3 841.9;" xml:space="preserve">
<style type="text/css">
	.st0{fill:#E2B330;}
</style>
<g id="Livello_1_copia">
</g>
<g id="Livello_1_copia_2">
</g>
<g id="Livello_1_1_">
	<g>
		<g id="XMLID_1_">
			<g>
				<path class="st0" d="M685.2,367l-51.4-66.4l-51.4-65.9l-51.4-65.9l-51.4-65.9l-51.4-66.4L377,102.9l-51.4,65.9l-51.4-65.9
					l-51.9-66.4l-51.4,66.4l-51.4,65.9l-51.4,65.9L17,300.6L-34.4,367l-51.4,65.9l51.4,65.9L17,564.7l51.4,66.4l51.4,65.9l51.4-65.9
					l51.4-66.4l51.4-65.9l-51.4-65.9L171.1,367l-51.4-66.4l51.4-65.9l51.4-65.9l51.4,65.9l51.4,65.9l51.4-65.9l51.4-65.9l51.4,65.9
					l51.4,65.9L479.3,367L376.5,499.3l51.4,65.9l51.4,66.4l51.4,65.9l51.4-65.9l51.4-66.4l51.4-65.9l51.4-65.9L685.2,367z
					 M171.1,499.3l-51.4,65.9l-51.4-65.9L17,433.4l51.4-65.9l51.4,65.9L171.1,499.3z M582.5,499.3l-51.4,65.9l-51.4-65.9l51.4-65.9
					l51.4-65.9l51.4,65.9L582.5,499.3z"/>
			</g>
		</g>
	</g>
</g>
</svg>
