<?xml version="1.0" encoding="utf-8"?>
<!-- Generator: Adobe Illustrator 24.1.1, SVG Export Plug-In . SVG Version: 6.00 Build 0)  -->
<svg version="1.1" id="Livello_1" xmlns="http://www.w3.org/2000/svg" xmlns:xlink="http://www.w3.org/1999/xlink" x="0px" y="0px"
	 viewBox="0 0 375 667" style="enable-background:new 0 0 375 667;" xml:space="preserve">
<style type="text/css">
	.st0{fill:#2B1F26;}
	.st1{fill:#29ABE2;}
	.st2{font-family:'MyriadPro-Regular';}
	.st3{font-size:11.2096px;}
	.st4{fill:#F2F2F2;}
	.st5{fill:#FF5E4D;}
	.st6{fill:#B3B3B3;}
	.st7{fill:#D894FF;}
	.st8{fill:#FBB03B;}
</style>
<rect class="st0" width="375" height="667"/>
<text transform="matrix(1 0 0 1 101.2582 113.3663)"><tspan x="0" y="0" class="st1 st2 st3">def</tspan><tspan x="15.2" y="0" class="st4 st2 st3"> </tspan><tspan x="17.6" y="0" class="st5 st2 st3">open_x(self):</tspan><tspan x="0" y="13.5" class="st4 st2 st3">    </tspan><tspan x="0" y="26.9" class="st6 st2 st3">#global stato</tspan><tspan x="0" y="40.4" class="st1 st2 st3">    </tspan><tspan x="0" y="53.8" class="st1 st2 st3">global </tspan><tspan x="31.9" y="53.8" class="st4 st2 st3">stato1</tspan><tspan x="0" y="67.3" class="st4 st2 st3">    </tspan><tspan x="0" y="80.7" class="st1 st2 st3">global</tspan><tspan x="29.5" y="80.7" class="st4 st2 st3"> fileOEE</tspan><tspan x="0" y="94.2" class="st4 st2 st3">    </tspan><tspan x="0" y="107.6" class="st1 st2 st3">if</tspan><tspan x="5.9" y="107.6" class="st4 st2 st3"> stato1:</tspan><tspan x="0" y="121.1" class="st4 st2 st3">        </tspan><tspan x="19" y="121.1" class="st1 st2 st3">global</tspan><tspan x="48.5" y="121.1" class="st4 st2 st3"> TEMPO_MACCHINA</tspan><tspan x="0" y="134.5" class="st4 st2 st3">        AppDict={}</tspan><tspan x="0" y="148" class="st4 st2 st3">        wb = Workbook()</tspan><tspan x="0" y="161.4" class="st4 st2 st3">        riga = </tspan><tspan x="48.4" y="161.4" class="st7 st2 st3">4</tspan><tspan x="0" y="174.9" class="st4 st2 st3">        fileName = fileOEE</tspan><tspan x="0" y="188.3" class="st4 st2 st3">        </tspan><tspan x="0" y="201.8" class="st1 st2 st3">try:</tspan><tspan x="0" y="215.2" class="st8 st2 st3">print(</tspan><tspan x="25.8" y="215.2" class="st4 st2 st3">&apos;Esiste&apos;)</tspan><tspan x="0" y="228.7" class="st4 st2 st3">            </tspan><tspan x="0" y="242.1" class="st1 st2 st3">if</tspan><tspan x="5.9" y="242.1" class="st4 st2 st3"> os.path.join(os.path.dirname(__file__), fileName):</tspan><tspan x="0" y="255.6" class="st4 st2 st3">#if os.path.isfile(fileOEE):</tspan><tspan x="0" y="269" class="st4 st2 st3">                </tspan><tspan x="0" y="282.5" class="st8 st2 st3">print</tspan><tspan x="22.6" y="282.5" class="st4 st2 st3">(&apos;PRESENTE&apos;)</tspan><tspan x="0" y="295.9" class="st4 st2 st3">            </tspan><tspan x="0" y="309.4" class="st4 st2 st3">wb = load_workbook(&apos;/Users/Spillo GDI 2/</tspan><tspan x="0" y="322.8" class="st4 st2 st3">Desktop/mimmo usb/&apos;+ fileOEE,read_only = </tspan><tspan x="0" y="336.3" class="st4 st2 st3">False, keep_vba = True)</tspan><tspan x="0" y="349.7" class="st4 st2 st3">heet = wb[&apos;Data Collector&apos;]</tspan><tspan x="0" y="363.2" class="st4 st2 st3">            </tspan><tspan x="0" y="376.6" class="st1 st2 st3">while not</tspan><tspan x="43.8" y="376.6" class="st4 st2 st3">(sheet.cell(row=riga, column=1).value </tspan><tspan x="0" y="390.1" class="st1 st2 st3">in</tspan><tspan x="8.8" y="390.1" class="st4 st2 st3"> [</tspan><tspan x="14.4" y="390.1" class="st1 st2 st3">None</tspan><tspan x="39.8" y="390.1" class="st4 st2 st3">,&apos;&apos;]):</tspan><tspan x="0" y="403.5" class="st4 st2 st3">            </tspan><tspan x="0" y="417" class="st4 st2 st3">riga = riga + </tspan><tspan x="58.8" y="417" class="st7 st2 st3">1</tspan><tspan x="0" y="430.4" class="st4 st2 st3">riga = riga + </tspan><tspan x="58.8" y="430.4" class="st7 st2 st3">1</tspan><tspan x="0" y="443.9" class="st6 st2 st3">            </tspan><tspan x="0" y="457.4" class="st6 st2 st3">#print(riga)</tspan><tspan x="0" y="470.8" class="st4 st2 st3">            </tspan><tspan x="0" y="484.3" class="st4 st2 st3">sheet.cell(row=riga, column=</tspan><tspan x="136.7" y="484.3" class="st7 st2 st3">1</tspan><tspan x="142.4" y="484.3" class="st4 st2 st3">).value = </tspan><tspan x="0" y="497.7" class="st4 st2 st3">self.dataEdit.text() # fatto</tspan><tspan x="0" y="511.2" class="st4 st2 st3">sheet.cell(row=riga, column=</tspan><tspan x="136.7" y="511.2" class="st7 st2 st3">3</tspan><tspan x="142.4" y="511.2" class="st4 st2 st3">).value = </tspan><tspan x="0" y="524.6" class="st8 st2 st3">int</tspan><tspan x="12.6" y="524.6" class="st4 st2 st3">(self.turno.currentText()) # fatto</tspan><tspan x="0" y="538.1" class="st4 st2 st3">sheet.cell(row=riga, column=</tspan><tspan x="136.7" y="538.1" class="st7 st2 st3">4</tspan><tspan x="142.4" y="538.1" class="st4 st2 st3">).value = </tspan><tspan x="0" y="551.5" class="st4 st2 st3">self.leaderBox.currentText() #fatto operatore</tspan><tspan x="0" y="565" class="st4 st2 st3">sheet.cell(row=riga, column=</tspan><tspan x="136.7" y="565" class="st7 st2 st3">5</tspan><tspan x="142.4" y="565" class="st4 st2 st3">).value = </tspan><tspan x="184.6" y="565" class="st7 st2 st3">1</tspan><tspan x="0" y="578.4" class="st4 st2 st3">sheet.cell(row=riga, column=</tspan><tspan x="136.7" y="578.4" class="st7 st2 st3">6</tspan><tspan x="142.4" y="578.4" class="st4 st2 st3">).value = </tspan><tspan x="0" y="591.9" class="st4 st2 st3">self.tipoEdit.text()# fatto</tspan></text>
</svg>
